<svg class=" t4s-icon-door-lock" viewBox="0 0 27 32" width="27" height="32"><path d="M 13.333 2.667 c -7.36 0 -13.333 5.973 -13.333 13.333 s 5.973 13.333 13.333 13.333 c 7.36 0 13.333 -5.973 13.333 -13.333 s -5.973 -13.333 -13.333 -13.333 Z M 13.333 28.267 c -6.773 0 -12.267 -5.493 -12.267 -12.267 s 5.493 -12.267 12.267 -12.267 c 6.773 0 12.267 5.493 12.267 12.267 s -5.493 12.267 -12.267 12.267 Z"></path><path d="M 17.6 12.8 c 0 -2.347 -1.92 -4.267 -4.267 -4.267 s -4.267 1.92 -4.267 4.267 c 0 1.6 0.907 3.04 2.24 3.733 l -2.24 6.4 h 8.533 l -2.187 -6.4 c 1.28 -0.747 2.187 -2.133 2.187 -3.733 Z M 16.107 21.867 h -5.547 l 1.707 -4.96 l 0.32 -0.853 l -0.8 -0.427 c -1.013 -0.587 -1.653 -1.653 -1.653 -2.827 c 0 -1.76 1.44 -3.2 3.2 -3.2 s 3.2 1.44 3.2 3.2 c 0 1.173 -0.64 2.24 -1.653 2.773 l -0.8 0.427 l 0.267 0.853 l 1.76 5.013 Z"></path></svg>