<svg class=" t4s-icon-help" viewBox="0 0 32 32" width="32" height="32"><path d="M 16 3.205 c -7.066 0 -12.795 5.728 -12.795 12.795 s 5.729 12.794 12.795 12.795 c 7.067 -0.001 12.795 -5.729 12.795 -12.795 s -5.729 -12.795 -12.795 -12.795 Z M 15.999 21.864 c -3.233 0 -5.863 -2.631 -5.863 -5.864 s 2.631 -5.864 5.864 -5.864 h 0.001 c 3.233 0 5.863 2.631 5.863 5.864 s -2.631 5.864 -5.865 5.864 Z M 22.395 13.327 l 4.028 -2.693 c 0.832 1.609 1.305 3.433 1.305 5.366 c 0 1.909 -0.461 3.71 -1.273 5.305 l -4.035 -2.699 c 0.327 -0.805 0.511 -1.683 0.511 -2.606 c 0 -0.948 -0.191 -1.85 -0.535 -2.673 Z M 25.89 9.708 l -3.99 2.668 c -0.58 -0.942 -1.377 -1.733 -2.325 -2.305 l 2.669 -3.991 c 1.466 0.926 2.712 2.167 3.645 3.629 Z M 21.316 5.55 l -2.698 4.034 c -0.808 -0.33 -1.69 -0.515 -2.617 -0.515 h -0.001 c -0.927 0 -1.809 0.185 -2.617 0.515 l -2.698 -4.034 c 1.597 -0.816 3.402 -1.279 5.315 -1.279 s 3.719 0.463 5.316 1.279 Z M 9.756 6.078 l 2.67 3.992 c -0.95 0.574 -1.748 1.367 -2.329 2.311 l -3.991 -2.669 c 0.934 -1.464 2.182 -2.707 3.65 -3.634 Z M 5.574 10.639 l 4.029 2.694 c -0.343 0.822 -0.533 1.722 -0.533 2.667 c 0 0.92 0.183 1.797 0.509 2.599 l -4.036 2.7 c -0.81 -1.593 -1.27 -3.393 -1.27 -5.299 c 0 -1.931 0.472 -3.753 1.303 -5.361 Z M 6.069 22.229 l 3.992 -2.669 c 0.576 0.959 1.377 1.766 2.331 2.35 l -2.669 3.99 c -1.473 -0.937 -2.724 -2.193 -3.654 -3.671 Z M 10.65 26.432 l 2.695 -4.03 c 0.818 0.34 1.713 0.529 2.654 0.529 c 0.001 0 0.001 0 0.001 0 c 0.941 0 1.838 -0.189 2.656 -0.529 l 2.695 4.03 c -1.606 0.827 -3.424 1.297 -5.351 1.297 s -3.745 -0.47 -5.35 -1.297 Z M 22.278 25.899 l -2.669 -3.991 c 0.952 -0.583 1.751 -1.387 2.327 -2.344 l 3.992 2.67 c -0.93 1.475 -2.179 2.729 -3.65 3.665 Z"></path></svg>