<?xml version="1.0" encoding="utf-8"?>
<!-- Uploaded to: SVG Repo, www.svgrepo.com, Generator: SVG Repo Mixer Tools -->
<svg width="800px" height="800px" viewBox="0 -9.52 55.327 55.327" xmlns="http://www.w3.org/2000/svg">
  <g id="bra" transform="translate(-440.18 -596.153)">
    <g id="Group_31" data-name="Group 31">
      <path id="Path_22" data-name="Path 22" d="M454.373,632.43a26.542,26.542,0,0,1-5.68-.678c-9.995-2.212-8.211-14.053-7.539-18.511l.045-.3.206-.225c.108-.117,2.707-2.883,8.5-2.883,11.039,0,16.822,13.538,17.063,14.114l.172.412-.192.4C464.527,629.85,460.3,632.43,454.373,632.43Zm-11.292-18.549c-1.435,9.9.381,14.665,6.044,15.918a24.537,24.537,0,0,0,5.248.631c4.993,0,8.455-2,10.57-6.118-1.027-2.189-6.319-12.48-15.034-12.48C445.846,611.832,443.719,613.335,443.081,613.881Z" fill="#231f20"/>
    </g>
    <g id="Group_32" data-name="Group 32">
      <path id="Path_23" data-name="Path 23" d="M442.142,614.377a1,1,0,0,1-1-.941l-.963-16.224a1,1,0,0,1,.939-1.058,1.011,1.011,0,0,1,1.057.939l.963,16.224a1,1,0,0,1-.939,1.058Z" fill="#231f20"/>
    </g>
    <g id="Group_33" data-name="Group 33">
      <path id="Path_24" data-name="Path 24" d="M481.314,632.43h0c-5.922,0-10.154-2.58-12.578-7.668l-.192-.4.172-.412c.241-.576,6.023-14.114,17.062-14.114,5.8,0,8.4,2.766,8.5,2.883l.206.225.046.3c.672,4.458,2.456,16.3-7.54,18.511A26.541,26.541,0,0,1,481.314,632.43Zm-10.571-8.119c2.115,4.116,5.577,6.119,10.57,6.119a24.537,24.537,0,0,0,5.248-.631c5.664-1.253,7.48-6.021,6.045-15.919-.631-.539-2.759-2.048-6.829-2.048C477.046,611.832,471.767,622.122,470.743,624.311Z" fill="#231f20"/>
    </g>
    <g id="Group_34" data-name="Group 34">
      <path id="Path_25" data-name="Path 25" d="M493.545,614.377l-.06,0a1,1,0,0,1-.939-1.058l.963-16.224a1,1,0,1,1,2,.119l-.963,16.224A1,1,0,0,1,493.545,614.377Z" fill="#231f20"/>
    </g>
    <g id="Group_35" data-name="Group 35">
      <rect id="Rectangle_4" data-name="Rectangle 4" width="3.455" height="1" transform="translate(466.049 624.166)" fill="#231f20"/>
    </g>
    <g id="Group_36" data-name="Group 36">
      <path id="Path_26" data-name="Path 26" d="M473.753,629.906a20.758,20.758,0,0,0-11.8-.008l-.337-.941a21.433,21.433,0,0,1,12.431-.008Z" fill="#231f20"/>
    </g>
  </g>
</svg>