<?xml version="1.0" encoding="utf-8"?>
<!-- Uploaded to: SVG Repo, www.svgrepo.com, Generator: SVG Repo Mixer Tools -->
<svg width="800px" height="800px" viewBox="0 -10.26 52.408 52.408" xmlns="http://www.w3.org/2000/svg">
  <g id="briefs" transform="translate(-332.981 -598.352)">
    <g id="Group_15" data-name="Group 15">
      <path id="Path_10" data-name="Path 10" d="M359.185,630.244c-4.957,0-8.779-2.842-10.764-8-1.049-2.731-8.685-6.021-12.348-7.1-2.835-.834-3.242-2.725-3.052-3.737V600.352a2,2,0,0,1,2-2h24.164v2H335.021l-.035,11.428c-.01.065-.122.924,1.651,1.447.117.034,11.874,3.669,13.651,8.3,1.179,3.066,3.679,6.72,8.9,6.72Z" fill="#231f20"/>
    </g>
    <g id="Group_16" data-name="Group 16">
      <path id="Path_11" data-name="Path 11" d="M359.185,630.244v-2c5.218,0,7.718-3.654,8.9-6.72,1.778-4.626,13.534-8.263,13.652-8.3,1.842-.541,1.653-1.437,1.651-1.446l-.035-.262V600.352H359.185v-2h24.164a2,2,0,0,1,2,2v11.056c.19,1.012-.218,2.9-3.052,3.736-3.664,1.077-11.3,4.368-12.349,7.1C367.965,627.4,364.143,630.244,359.185,630.244Z" fill="#231f20"/>
    </g>
    <g id="Group_17" data-name="Group 17">
      <rect id="Rectangle_3" data-name="Rectangle 3" width="50.327" height="1" transform="translate(334.022 602.685)" fill="#231f20"/>
    </g>
    <g id="Group_18" data-name="Group 18">
      <path id="Path_12" data-name="Path 12" d="M344.238,617.882l-.288-.958c.3-.09,7.238-2.337,7.238-13.738h1C352.188,615.367,344.563,617.784,344.238,617.882Z" fill="#231f20"/>
    </g>
    <g id="Group_19" data-name="Group 19">
      <path id="Path_13" data-name="Path 13" d="M373.634,617.882c-.324-.1-7.949-2.515-7.949-14.7h1c0,11.444,7.163,13.715,7.235,13.737Z" fill="#231f20"/>
    </g>
  </g>
</svg>