<?xml version="1.0" encoding="iso-8859-1"?>
<!-- Uploaded to: SVG Repo, www.svgrepo.com, Generator: SVG Repo Mixer Tools -->
<svg height="800px" width="800px" version="1.1" id="Layer_1" xmlns="http://www.w3.org/2000/svg" xmlns:xlink="http://www.w3.org/1999/xlink" 
	 viewBox="0 0 512.004 512.004" xml:space="preserve">
<g transform="translate(0 -1)">
	<path style="fill:#2C3E50;" d="M344.508,274.66c1.121-35.584,8.713-71.724,17.611-96.918c0,0,18.573,43.405,24.647,61.608
		c6.065,18.211,45.789,238.345,45.789,238.345l61.793-8.828c-20.966-102.065-68.414-378.483-88.276-397.241
		c-7.142-6.744-30.199-19.076-52.966-26.483c1.51,1.88-28.478,38.841-40.483,42.717c-11.485,3.708-21.954,0.547-32.433-4.378
		c-8.077-3.805-15.969-8.422-24.188-11.953c-8.21,3.531-16.102,8.148-24.179,11.953c-10.478,4.926-20.948,8.086-32.441,4.378
		c-11.997-3.875-41.984-40.836-40.483-42.717c-22.758,7.406-45.824,19.738-52.966,26.483
		c-19.862,18.759-67.31,295.177-88.276,397.241l61.793,8.828c0,0,39.724-220.134,45.798-238.345
		c6.065-18.202,24.638-61.608,24.638-61.608c8.898,25.194,16.49,61.334,17.62,96.918l-10.231,52.966
		c-10.417,46.654-24.858,119.958-24.858,167.724c70.621,0,123.586-40.466,123.586-105.931c0,65.474,52.965,105.931,123.586,105.931
		c0-47.766-14.442-121.07-24.85-167.724L344.508,274.66z"/>
	<g>
		<path style="fill:#1E2D3A;" d="M132.419,495.349c35.31,17.655,88.276,17.655,123.586,17.655s88.276,0,123.586-17.655
			c-0.018,0,0.018,0,0,0c-70.276-0.071-123.586-40.166-123.586-105.931C256.005,455.201,202.713,495.34,132.419,495.349"/>
		<path style="fill:#1E2D3A;" d="M256.005,460.039c-4.882,0-8.828-3.946-8.828-8.828V71.625c0-4.882,3.946-8.828,8.828-8.828
			c4.882,0,8.828,3.946,8.828,8.828v379.586C264.832,456.093,260.887,460.039,256.005,460.039"/>
	</g>
	<polygon style="fill:#3E5A70;" points="256.005,71.524 317.798,1 194.212,1 	"/>
	<path style="fill:#1E2D3A;" d="M194.212,1.004l61.793,70.515c-8.218,3.54-16.11,8.166-24.188,11.961
		c-10.47,4.926-20.948,8.086-32.433,4.378c-11.997-3.875-41.984-40.836-40.483-42.717L194.212,1.004z"/>
	<path style="fill:#D1D4D1;" d="M308.97,159.901c-4.882,0-8.828-3.946-8.828-8.828V89.28c0-4.882,3.946-8.828,8.828-8.828
		c4.882,0,8.828,3.946,8.828,8.828v61.793C317.798,155.955,313.852,159.901,308.97,159.901"/>
	<path style="fill:#F9EBB0;" d="M326.626,221.694h-35.31c-4.882,0-8.828-3.946-8.828-8.828v-44.138c0-2.348,0.927-4.59,2.586-6.241
		l17.655-17.655c3.452-3.452,9.031-3.452,12.482,0l17.655,17.655c1.66,1.651,2.586,3.893,2.586,6.241v44.138
		C335.453,217.748,331.507,221.694,326.626,221.694"/>
	<path style="fill:#1E2D3A;" d="M317.798,1.004l-61.793,70.515c8.218,3.54,16.11,8.166,24.188,11.961
		c10.47,4.926,20.948,8.086,32.433,4.378c11.997-3.875,41.984-40.836,40.483-42.717L317.798,1.004z"/>
</g>
</svg>