<?xml version="1.0" encoding="iso-8859-1"?>
<!-- Uploaded to: SVG Repo, www.svgrepo.com, Generator: SVG Repo Mixer Tools -->
<svg height="800px" width="800px" version="1.1" id="Layer_1" xmlns="http://www.w3.org/2000/svg" xmlns:xlink="http://www.w3.org/1999/xlink" 
	 viewBox="0 0 512.004 512.004" xml:space="preserve">
<g transform="translate(-1 -1)">
	<path style="fill:#35495E;" d="M318.813,228.773v-1.077c0-8.404,2.172-16.622,6.426-23.879
		c7.83-13.383,20.056-42.911,20.056-96.883l-44.138-70.621l-0.071,0.733c-4.264,42.01-43.052,121.167-44.067,122.854
		c-0.962-1.598-39.962-81.214-44.138-123.586l-44.138,70.621c0,53.972,12.217,83.5,20.056,96.883
		c4.255,7.256,6.426,15.475,6.426,23.879v1.077c0,12.006-4.767,23.358-12.676,32.388c-58.289,66.604-41.807,157.069-22.634,234.187
		c0,0,52.966,17.655,97.103,17.655s97.103-17.655,97.103-17.655c19.174-77.118,35.655-167.583-22.634-234.187
		C323.58,252.131,318.813,240.778,318.813,228.773"/>
	<g>
		<path style="fill:#FDD7AD;" d="M345.25,106.858c9.719-8.951,26.439-26.801,26.439-35.24c0-19.368-16.004-33.748-70.444-35.169
			L345.25,106.858z"/>
		<path style="fill:#FDD7AD;" d="M257.02,159.897c1.015-1.686,39.804-80.843,44.067-122.854l0.053-0.591
			c-2.895-0.079-5.817-0.141-8.934-0.141c-9.754,0-17.655-7.91-17.655-17.655V1h-17.655h-17.655v17.655
			c0,9.746-7.901,17.655-17.655,17.655c-3.028,0-5.87,0.062-8.686,0.132C217.093,78.771,256.058,158.308,257.02,159.897"/>
		<path style="fill:#FDD7AD;" d="M168.62,106.931c0.044,0.132,0.088,0.265,0.132,0.397c0-0.132-0.009-0.256-0.009-0.397
			l44.05-70.479c-54.634,1.377-70.691,15.766-70.691,35.169C142.102,80.078,158.91,98.006,168.62,106.931"/>
	</g>
	<g>
		<path style="fill:#21313F;" d="M331.489,261.164c-1.757-2.013-3.302-4.167-4.732-6.391
			c-55.111-21.398-110.513-60.231-155.71-109.815c3.911,30.482,12.006,49.037,17.752,58.862c2.216,3.769,3.831,7.812,4.908,11.997
			c50.591,42.249,107.705,72.377,163.293,85.425C350.84,287.197,342.506,273.752,331.489,261.164"/>
		<path style="fill:#21313F;" d="M152.578,463.862c85.698-21.892,163.628-66.754,216.099-122.942
			c-2.392-13.798-6.179-27.304-11.935-40.271c-46.565,57.697-124.734,105.64-210.547,128.3
			C147.944,440.69,150.106,452.36,152.578,463.862"/>
	</g>
</g>
</svg>