<?xml version="1.0" encoding="iso-8859-1"?>

<!DOCTYPE svg PUBLIC "-//W3C//DTD SVG 1.1//EN" "http://www.w3.org/Graphics/SVG/1.1/DTD/svg11.dtd">
<!-- Uploaded to: SVG Repo, www.svgrepo.com, Generator: SVG Repo Mixer Tools -->
<svg version="1.1" id="_x35_" xmlns="http://www.w3.org/2000/svg" xmlns:xlink="http://www.w3.org/1999/xlink" 
	 viewBox="0 0 512 512"  xml:space="preserve">
<g>
	<polygon style="fill:none;" points="235.425,112.816 235.425,127.136 302.434,127.136 301.074,112.816 	"/>
	<polygon style="fill:none;" points="130.031,127.136 198.518,127.136 198.518,112.816 131.391,112.816 	"/>
	<g>
		<g>
			<g>
				<path style="fill:#494849;" d="M333.491,91.828c0,11.553-9.466,21.019-21.019,21.019h-196.7
					c-11.553,0-21.019-9.465-21.019-21.019l0.373-8.05L98.33,21.02C98.33,9.466,107.796,0,119.349,0h189.544
					c11.553,0,21.019,9.466,21.019,21.02l0.075,1.789l2.758,54.262L333.491,91.828z"/>
				<rect x="196.59" y="72.997" style="fill:#414142;" width="36.907" height="70.242"/>
				
					<rect x="92.385" y="78.652" transform="matrix(0.9955 0.0946 -0.0946 0.9955 11.2587 -9.974)" style="fill:#414142;" width="36.907" height="70.242"/>
				
					<rect x="299.317" y="78.652" transform="matrix(-0.9955 0.0946 -0.0946 -0.9955 644.8777 196.9787)" style="fill:#414142;" width="36.907" height="70.242"/>
			</g>
			<rect x="51.789" y="129.548" style="fill:#E9E8E8;" width="325.02" height="330.91"/>
			<g>
				<path style="fill:#414142;" d="M350.228,359.419v103.078H79.858V359.419c0-13.751,12.166-25.002,27.037-25.002h216.296
					C338.061,334.417,350.228,345.668,350.228,359.419z"/>
				<path style="fill:#2C2C2D;" d="M331.651,359.121H96.013c-1.158,0-2.096,0.868-2.096,1.938v4.904c0,1.07,0.938,1.938,2.096,1.938
					h235.638c1.158,0,2.096-0.868,2.096-1.938v-4.904C333.747,359.989,332.808,359.121,331.651,359.121z"/>
				<polygon style="fill:#FFFFFF;" points="369.231,512 60.855,512 89.843,400.296 99.171,364.384 330.916,364.384 340.244,400.296 
									"/>
				<polygon style="opacity:0.06;fill:#040000;" points="340.244,400.296 89.843,400.296 99.171,364.384 330.916,364.384 				"/>
			</g>
			<path style="fill:#414142;" d="M51.82,129.543v330.939h-4.472c-4.025,0-7.975-0.522-11.702-1.565
				c-16.696-4.249-29.814-17.367-34.063-34.063c-1.044-3.727-1.565-7.677-1.565-11.702V176.873c0-26.013,21.318-47.33,47.331-47.33
				H51.82z"/>
			<path style="fill:#414142;" d="M428.597,176.872v236.261c0,26.02-21.287,47.324-47.324,47.324h-4.465v-330.91h4.465
				C407.31,129.548,428.597,150.853,428.597,176.872z"/>
			<path style="fill:#BA9846;" d="M428.597,174.491v134.802c-15.608,2.215-32.966,4.179-51.789,5.876
				c-46.824,4.197-102.613,6.625-162.51,6.625c-59.897,0-115.686-2.429-162.51-6.625c-18.823-1.697-36.181-3.661-51.789-5.876
				V174.491c0-26.02,21.305-47.324,47.324-47.324h333.949C407.31,127.167,428.597,148.472,428.597,174.491z"/>
			<g>
				<g>
					<circle style="fill:#FDFEFE;" cx="99.067" cy="182.329" r="13.493"/>
					<circle style="fill:#FDFEFE;" cx="99.067" cy="221.121" r="13.493"/>
					<circle style="fill:#FDFEFE;" cx="99.067" cy="259.913" r="13.493"/>
				</g>
				<g>
					<circle style="fill:#FDFEFE;" cx="142.453" cy="182.329" r="13.493"/>
					<circle style="fill:#FDFEFE;" cx="142.453" cy="221.121" r="13.493"/>
					<circle style="fill:#FDFEFE;" cx="142.453" cy="259.913" r="13.493"/>
				</g>
				<g>
					<circle style="fill:#FDFEFE;" cx="185.839" cy="182.329" r="13.493"/>
					<circle style="fill:#FDFEFE;" cx="185.839" cy="221.121" r="13.493"/>
					<circle style="fill:#FDFEFE;" cx="185.839" cy="259.913" r="13.493"/>
				</g>
			</g>
			<rect x="227.621" y="170.027" style="fill:#88C7CC;" width="136.913" height="61.016"/>
			<path style="fill:#64B955;" d="M287.7,248.305h-56.805c-2.292,0-4.167,1.875-4.167,4.167v15.775c0,2.292,1.875,4.167,4.167,4.167
				H287.7c2.292,0,4.167-1.875,4.167-4.167v-15.775C291.867,250.18,289.992,248.305,287.7,248.305z"/>
			<path style="fill:#A66F7D;" d="M360.423,248.305h-55.131c-2.752,0-5.004,2.252-5.004,5.004v14.101
				c0,2.752,2.252,5.004,5.004,5.004h55.131c2.752,0,5.004-2.252,5.004-5.004v-14.101
				C365.427,250.557,363.176,248.305,360.423,248.305z"/>
		</g>
		<path style="opacity:0.06;fill:#040000;" d="M381.273,127.167h-38.141L19.236,451.063c4.846,3.597,10.382,6.32,16.41,7.854
			c3.727,1.043,7.677,1.565,11.702,1.565h4.472v-0.024h22.411L60.855,512h308.376l-13.375-51.542h20.952h4.465
			c26.037,0,47.324-21.305,47.324-47.326v-103.84V176.872v-2.381C428.597,148.471,407.311,127.167,381.273,127.167z"/>
	</g>
</g>
</svg>