<?xml version="1.0" encoding="utf-8"?>
<!-- Uploaded to: SVG Repo, www.svgrepo.com, Generator: SVG Repo Mixer Tools -->
<svg width="800px" height="800px" viewBox="0 -10.17 55.083 55.083" xmlns="http://www.w3.org/2000/svg">
  <g id="Heels" transform="translate(-440.619 -488.733)">
    <g id="Group_28" data-name="Group 28">
      <path id="Path_20" data-name="Path 20" d="M441.619,523.472a1,1,0,0,1-1-1c0-5.879,10.383-11.812,11.567-12.469a.991.991,0,0,1,.872-.048,27.121,27.121,0,0,0,8.771,1.939h0a6.444,6.444,0,0,0,4.409-1.306c6.907-6.23,24.032-21.45,24.2-21.6a1,1,0,0,1,1.37.039c4.221,4.214,3.892,14.047,3.876,14.463,0,2.359-1.93,2.824-4.167,3.366a29.336,29.336,0,0,0-11.1,4.954q-2.175,1.537-4.107,2.929c-7.329,5.252-12.17,8.721-15.748,8.723Zm11.129-11.488c-2.9,1.681-8.968,5.866-9.984,9.487l17.8-.011c2.936,0,7.821-3.5,14.584-8.349,1.293-.925,2.664-1.908,4.118-2.936a31.138,31.138,0,0,1,11.788-5.266c2.443-.59,2.638-.761,2.638-1.458,0-.124.275-8.322-2.677-12.3-3.4,3.028-17.368,15.448-23.435,20.919a8.328,8.328,0,0,1-5.749,1.822h0A27.96,27.96,0,0,1,452.748,511.984Z" fill="#231f20"/>
    </g>
    <g id="Group_29" data-name="Group 29">
      <path id="Path_21" data-name="Path 21" d="M485.329,523.442a1,1,0,0,1-1-.985c-.006-.406-.141-9.943-.141-10.833,0-1.24-.436-1.734-.811-1.781a1.015,1.015,0,0,1-.946-1,1,1,0,0,1,1-1h0a.1.1,0,0,1,.017,0,63.393,63.393,0,0,0,8.123-3.051,1,1,0,0,1,1.15,1.573c-.022.026-2.546,3.081-2.542,9.149l.005,6.923a1,1,0,0,1-1,1l-3.858,0Zm.326-14.16a4.706,4.706,0,0,1,.533,2.341c0,.709.091,7.287.126,9.818h1.872l-.005-5.923a19.618,19.618,0,0,1,1.467-7.754C488.318,508.3,486.853,508.875,485.655,509.282Z" fill="#231f20"/>
    </g>
  </g>
</svg>