<?xml version="1.0" encoding="iso-8859-1"?>
<!-- Uploaded to: SVG Repo, www.svgrepo.com, Generator: SVG Repo Mixer Tools -->
<svg height="800px" width="800px" version="1.1" id="Layer_1" xmlns="http://www.w3.org/2000/svg" xmlns:xlink="http://www.w3.org/1999/xlink" 
	 viewBox="0 0 503.439 503.439" xml:space="preserve">
<g>
	<path style="fill:#CC66A1;" d="M52.264,455.492H17.553c0-8.678,0.139-35.909,0-43.39c-0.286-14.952-1.137-30.494-1.701-45.438
		c-1.145-29.887-2.864-59.756-5.137-89.583c-1.927-25.392-3.914-50.862-7.047-76.088c-3.289-26.45-7.316-57.179,2.586-82.553
		c8.461-21.686,23.83-40.309,40.639-56.112c3.15-2.968,6.387-5.849,9.693-8.643c9.832-8.296,24.316-7.489,33.28,1.727
		c18.102,18.614,47.59,53.769,66.534,101.237c10.344,25.93,21.556,51.504,33.28,76.835c12.019,25.964,24.229,51.59,35.701,77.807
		c6.908,15.803,15.377,32.933,29.418,43.598c13.486,10.231,30.251,14.249,46.991,13.945c15.516-0.286,30.868-3.879,45.525-8.799
		c0,0,133.268,45.811,154.233,69.675c20.975,23.864-139.507,25.782-139.507,25.782h-109.42c-24.862,0-48.822-9.771-66.135-27.622
		c-20.68-21.304-62.004-138.44-64.356-144.445c-4.938-12.618-10.422-25.123-17.243-36.847c-5.103-8.756-12.21-21.027-22.554-24.35
		c-14.423-4.643-22.32,14.032-25.157,24.862c-6.751,25.756-5.016,34.521-4.912,60.876C52.438,350.905,52.264,455.284,52.264,455.492
		"/>
</g>
</svg>