<?xml version="1.0" encoding="iso-8859-1"?>
<!-- Uploaded to: SVG Repo, www.svgrepo.com, Generator: SVG Repo Mixer Tools -->
<svg height="800px" width="800px" version="1.1" id="Layer_1" xmlns="http://www.w3.org/2000/svg" xmlns:xlink="http://www.w3.org/1999/xlink" 
	 viewBox="0 0 512 512" xml:space="preserve">
<g>
	<path style="fill:#4482C3;" d="M380.516,441.379L380.516,441.379c8.254-247.614-7.265-352.388-7.345-352.892
		c-9.516-9.746-21.31-19.606-28.857-17.867c0,0,9.931-70.621-88.276-70.621s-88.276,70.621-88.276,70.621
		c-7.548-1.739-18.458,8.121-27.966,17.867c-0.079,0.503-15.598,105.278-7.345,352.892c16.666,22.228,42.831,35.31,70.621,35.31
		h106.823C337.684,476.69,363.84,463.607,380.516,441.379"/>
	<g>
		<path style="fill:#285680;" d="M132.448,441.379c14.468,19.297,36.096,31.665,59.727,34.604
			c12.429-48.19,19.721-105.419,19.721-167.018c0-95.965-17.505-181.716-44.959-238.38l0,0c-6.568-0.803-15.386,6.294-23.64,14.38
			c-1.183,1.165-2.348,2.339-3.505,3.522c-0.062,0.397-9.463,69.297-9.754,216.505C130.056,344.523,130.727,389.809,132.448,441.379
			"/>
		<path style="fill:#285680;" d="M345.133,70.585L345.133,70.585c-27.463,56.673-44.959,142.415-44.959,238.38
			c0,61.652,7.309,118.925,19.756,167.133c23.958-2.737,45.939-15.192,60.584-34.719c1.721-51.571,2.401-96.856,2.41-136.386
			c-0.282-147.2-9.693-216.108-9.754-216.505c-1.156-1.183-2.348-2.366-3.558-3.531C361.199,76.871,351.745,69.773,345.133,70.585"
			/>
	</g>
	<path style="fill:#4482C3;" d="M382.722,273.655c-1.421-125.696-9.499-184.806-9.551-185.176
		c8.563,8.775,15.281,17.452,15.281,17.452c19.385,33.236,40.422,88.223,50.088,147.165c1.766,10.761-6.568,20.559-17.47,20.559
		H382.722z"/>
	<path style="fill:#16394F;" d="M309.895,476.69H203.072c-19.359,0-37.853-6.471-52.966-17.832v44.314
		c0,4.873,3.946,8.828,8.828,8.828h194.207c4.873,0,8.828-3.955,8.828-8.828V459.52C347.006,470.466,328.874,476.69,309.895,476.69"
		/>
	<path style="fill:#285680;" d="M278.99,81.65l18.538-23.172c4.626-5.773,0.503-14.336-6.894-14.336h-69.199
		c-7.398,0-11.52,8.563-6.894,14.336l18.538,23.172c3.354,4.184,8.422,6.63,13.789,6.63h18.335
		C270.569,88.279,275.636,85.834,278.99,81.65"/>
	<g>
		<path style="fill:#16394F;" d="M344.311,185.379c-4.873,0-8.828-3.946-8.828-8.828V70.621c0-4.882,3.955-8.828,8.828-8.828
			s8.828,3.946,8.828,8.828v105.931C353.139,181.433,349.184,185.379,344.311,185.379"/>
		<path style="fill:#16394F;" d="M167.759,185.379c-4.873,0-8.828-3.946-8.828-8.828V70.621c0-4.882,3.955-8.828,8.828-8.828
			s8.828,3.946,8.828,8.828v105.931C176.587,181.433,172.632,185.379,167.759,185.379"/>
	</g>
	<path style="fill:#4482C3;" d="M130.245,273.655c1.421-125.678,9.498-184.806,9.551-185.176
		c-8.563,8.775-15.281,17.452-15.281,17.452c-21.319,33.245-41.666,88.267-51.068,147.244c-1.713,10.734,6.612,20.48,17.479,20.48
		H130.245z"/>
	<g>
		<path style="fill:#16394F;" d="M307.744,414.897h73.569c0.697-25.123,1.139-48.64,1.377-70.621h-81.629
			C302.192,368.808,304.443,392.466,307.744,414.897"/>
		<path style="fill:#16394F;" d="M211.006,344.276h-80.737c0.026,2.339,0.044,4.634,0.079,7.009c0,0.247,0,0.477,0.009,0.724
			c0.044,3.875,0.115,7.857,0.177,11.82c0.035,2.375,0.071,4.732,0.115,7.133c0.062,3.407,0.124,6.877,0.194,10.355
			c0.071,3.24,0.132,6.497,0.212,9.799c0.062,3.037,0.132,6.1,0.212,9.19c0.097,4.14,0.212,8.351,0.327,12.588
			c0.018,0.671,0.035,1.333,0.053,2.004h72.678C207.626,392.466,209.877,368.808,211.006,344.276"/>
	</g>
</g>
</svg>