<?xml version="1.0" encoding="iso-8859-1"?>
<!-- Uploaded to: SVG Repo, www.svgrepo.com, Generator: SVG Repo Mixer Tools -->
<svg height="800px" width="800px" version="1.1" id="Layer_1" xmlns="http://www.w3.org/2000/svg" xmlns:xlink="http://www.w3.org/1999/xlink" 
	 viewBox="0 0 503.593 503.593" xml:space="preserve">
<g transform="translate(0 -1)">
	<path style="fill:#4482C3;" d="M364.822,27.034C337.704,47.644,252.009,44.39,252.009,44.39s-85.695,3.254-112.814-17.356
		c-10.127,22.78-22.294,99.797-16.141,146.441c6.812,51.747,39.407,192.364,39.407,220.924c0,28.568-14.822,83.525-14.822,101.246
		c26.398,11.889,52.441,11.976,86.78,0c0,0-8.313-113.898-8.313-156.924c0-43.034,25.904-173.559,25.904-207.551
		c0,33.992,25.435,164.517,25.435,207.551c0,43.025-8.314,156.924-8.314,156.924c34.339,11.976,60.381,11.889,86.78,0
		c0-17.72-14.822-72.678-14.822-101.246c0-28.559,32.586-169.177,39.407-220.924C386.647,126.831,374.95,49.814,364.822,27.034"/>
	<g>
		<path style="fill:#285680;" d="M355.422,1c-12.34,4.877-86.372,8.678-103.415,8.678C234.971,9.678,160.94,5.877,148.6,1
			l-9.407,26.034c29.384,20.61,112.814,17.356,112.814,17.356s83.439,3.254,112.814-17.356L355.422,1z"/>
		<path style="fill:#285680;" d="M252.009,139.847c-10.205,0-26.711-7.992-29.913-9.589c-4.287-2.152-6.023-7.359-3.888-11.646
			c2.152-4.278,7.35-6.014,11.646-3.888c6.274,3.133,17.651,7.767,22.155,7.767c4.521,0,15.898-4.634,22.155-7.767
			c4.287-2.135,9.502-0.399,11.646,3.888c2.143,4.287,0.399,9.494-3.888,11.646C278.72,131.855,262.214,139.847,252.009,139.847"/>
	</g>
</g>
</svg>