<?xml version="1.0" encoding="utf-8"?>
<!-- Uploaded to: SVG Repo, www.svgrepo.com, Generator: SVG Repo Mixer Tools -->
<svg width="800px" height="800px" viewBox="0 -2.22 63.445 63.445" xmlns="http://www.w3.org/2000/svg">
  <g id="Polo_shirt" data-name="Polo shirt" transform="translate(-328.571 -151.991)">
    <g id="Group_80" data-name="Group 80">
      <path id="Path_60" data-name="Path 60" d="M374.349,210.987H345.987c-2.358,0-2.358-2.267-2.358-3.357l.738-34.586-5.015,4.5a1.749,1.749,0,0,1-2.3.069,7.554,7.554,0,0,1-1.289-1.1l-5.639-4.865c-.753-.75-2.37-2.368-1.054-3.686l7.42-7.42c.495-.6,5.068-5.909,12.263-5.909h4.364v2h-4.364c-6.512,0-10.7,5.152-10.737,5.2-.024.029-.049.057-.075.083l-7.3,7.3a6.523,6.523,0,0,0,.833.957l5.64,4.866a6.949,6.949,0,0,0,1.03.9l6.6-5.929a1,1,0,0,1,1.668.766l-.787,36.871a3.767,3.767,0,0,0,.142,1.314.842.842,0,0,0,.216.022h28.362a.565.565,0,0,0,.227-.031,4.051,4.051,0,0,0,.131-1.326l-.787-36.85a1,1,0,0,1,1.668-.766l6.676,5.993,7.485-6.73-7.354-7.354a.829.829,0,0,1-.074-.082c-.042-.052-4.257-5.205-10.738-5.205H367.4v-2h4.183c7.2,0,11.768,5.308,12.263,5.909l7.419,7.42c1,1,1,1.637.008,2.628l-7.731,6.952a1.787,1.787,0,0,1-1.279.717,1.846,1.846,0,0,1-1.311-.746l-4.983-4.473.738,34.565C376.707,208.72,376.707,210.987,374.349,210.987Z" fill="#231f20"/>
    </g>
    <g id="Group_81" data-name="Group 81">
      <path id="Path_61" data-name="Path 61" d="M352.362,155.636" fill="none" stroke="#231f20" stroke-miterlimit="10" stroke-width="2"/>
    </g>
    <g id="Group_82" data-name="Group 82">
      <path id="Path_62" data-name="Path 62" d="M362.135,172a.5.5,0,0,1-.5-.5V161.375a.5.5,0,0,1,1,0V171.5A.5.5,0,0,1,362.135,172Z" fill="#231f20"/>
    </g>
    <g id="Group_83" data-name="Group 83">
      <path id="Path_63" data-name="Path 63" d="M358.135,172a.5.5,0,0,1-.5-.5V161.375a.5.5,0,0,1,1,0V171.5A.5.5,0,0,1,358.135,172Z" fill="#231f20"/>
    </g>
    <g id="Group_84" data-name="Group 84">
      <path id="Path_64" data-name="Path 64" d="M360.723,163.947a.635.635,0,1,1-.636-.636A.635.635,0,0,1,360.723,163.947Z" fill="#231f20"/>
    </g>
    <g id="Group_85" data-name="Group 85">
      <path id="Path_65" data-name="Path 65" d="M360.723,165.947a.635.635,0,1,1-.636-.636A.635.635,0,0,1,360.723,165.947Z" fill="#231f20"/>
    </g>
    <g id="Group_86" data-name="Group 86">
      <path id="Path_66" data-name="Path 66" d="M360.723,167.947a.635.635,0,1,1-.636-.636A.635.635,0,0,1,360.723,167.947Z" fill="#231f20"/>
    </g>
    <g id="Group_87" data-name="Group 87">
      <path id="Path_67" data-name="Path 67" d="M360.723,169.947a.635.635,0,1,1-.636-.636A.635.635,0,0,1,360.723,169.947Z" fill="#231f20"/>
    </g>
    <g id="Group_88" data-name="Group 88">
      <rect id="Rectangle_12" data-name="Rectangle 12" width="1" height="10.457" transform="matrix(0.671, -0.741, 0.741, 0.671, 331.264, 168.359)" fill="#231f20"/>
    </g>
    <g id="Group_89" data-name="Group 89">
      <rect id="Rectangle_13" data-name="Rectangle 13" width="10.916" height="1" transform="translate(380.705 174.962) rotate(-42.269)" fill="#231f20"/>
    </g>
    <g id="Group_90" data-name="Group 90">
      <path id="Path_68" data-name="Path 68" d="M360.3,155c-2.472,0-4.358-.171-4.386-.173l.093-1a51.112,51.112,0,0,0,8.219,0l.094,1C362.943,154.96,361.549,155,360.3,155Z" fill="#231f20"/>
    </g>
    <g id="Group_91" data-name="Group 91">
      <path id="Path_69" data-name="Path 69" d="M360.222,153.205c-2.923,0-5.038-.214-5.07-.217l.1-1a56.38,56.38,0,0,0,9.736,0l.093,1C363.368,153.151,361.693,153.205,360.222,153.205Z" fill="#231f20"/>
    </g>
    <g id="Group_92" data-name="Group 92">
      <path id="Path_70" data-name="Path 70" d="M356.727,162.647a.493.493,0,0,1-.215-.049c-.111-.053-2.725-1.366-4.055-7.71a.5.5,0,0,1,.13-.45l2.227-2.295a.5.5,0,0,1,.846.238c.011.047,1.106,4.738,4.7,7.149a.5.5,0,0,1,.221.417.5.5,0,0,1-.225.416l-3.349,2.2A.505.505,0,0,1,356.727,162.647Zm-3.236-7.705c1,4.523,2.643,6.15,3.236,6.606l2.471-1.624a13.8,13.8,0,0,1-4.27-6.464Z" fill="#231f20"/>
    </g>
    <g id="Group_93" data-name="Group 93">
      <path id="Path_71" data-name="Path 71" d="M363.448,162.647a.505.505,0,0,1-.275-.082l-3.348-2.2a.5.5,0,0,1,0-.832c3.589-2.411,4.684-7.1,4.695-7.149a.5.5,0,0,1,.846-.238l2.226,2.295a.5.5,0,0,1,.13.45c-1.329,6.344-3.944,7.657-4.055,7.71A.493.493,0,0,1,363.448,162.647Zm-2.47-2.723,2.47,1.624c.593-.456,2.24-2.083,3.236-6.606l-1.436-1.482A13.8,13.8,0,0,1,360.978,159.924Z" fill="#231f20"/>
    </g>
  </g>
</svg>