<?xml version="1.0" encoding="iso-8859-1"?>
<!-- Uploaded to: SVG Repo, www.svgrepo.com, Generator: SVG Repo Mixer Tools -->
<svg fill="#000000" height="800px" width="800px" version="1.1" id="Layer_1" xmlns="http://www.w3.org/2000/svg" xmlns:xlink="http://www.w3.org/1999/xlink" 
	 viewBox="0 0 512 512" xml:space="preserve">
<g>
	<g>
		<path d="M504.261,384.162c1.664-19.337,5.282-66.014,6.485-119.629h-7.279c-70.605-0.58-128-57.933-128-127.838v-11.639
			c5.692-0.691,11.392-1.391,17.067-2.091v13.73c0,60.57,49.801,110.259,111.002,110.771h7.501
			c0.589-50.628-1.323-105.208-9.139-147.703c-0.017-0.137,0.034-0.265,0.009-0.393c-3.311-17.971-7.432-32.41-12.476-43.913
			c-0.154-0.35-0.307-0.683-0.461-1.033c-1.169-2.586-2.372-5.077-3.644-7.364c-1.502-2.714-4.361-4.395-7.458-4.395
			c-6.852,0-30.217,3.115-70.921,8.627c-52.915,7.17-125.389,16.975-150.946,16.975s-98.031-9.805-150.946-16.973
			c-40.704-5.513-64.068-8.627-70.921-8.627c-3.098,0-5.956,1.681-7.458,4.395c-1.254,2.261-2.449,4.736-3.61,7.305
			c-0.171,0.384-0.35,0.768-0.521,1.161c-5.026,11.486-9.139,25.899-12.45,43.844c-0.026,0.128,0.026,0.265,0,0.393
			C2.287,142.27,0.376,196.84,0.964,247.468h7.569c61.133-0.512,110.933-50.202,110.933-110.771v-13.722
			c5.675,0.708,11.375,1.399,17.067,2.091v11.631c0,69.905-57.395,127.258-127.932,127.838H1.255
			C2.458,318.15,6.076,364.827,7.74,384.164c-4.318,0.41-7.74,3.934-7.74,8.371v59.733c0,4.386,3.328,8.055,7.68,8.491
			c3.507,0.35,86.255,8.576,128.853,8.576c42.786,0,101.146-8.269,103.612-8.619c4.198-0.597,7.322-4.198,7.322-8.448v-59.733
			c0-4.719-3.814-8.533-8.533-8.533h-0.222c-1.109-30.711-7.791-54.724-12.663-68.267h21.419v-86.016
			c-28.894-4.164-51.2-29.022-51.2-59.051v-38.81c6.144,0.64,12.023,1.22,17.604,1.749c-0.188-0.017-0.35-0.034-0.538-0.051v37.111
			c0,20.608,14.686,37.845,34.133,41.805v-76.279c-0.119-0.008-0.273-0.017-0.401-0.026c3.422,0.171,6.443,0.256,8.934,0.256
			c2.398,0,5.265-0.077,8.533-0.23v85.675v93.867h21.419c-4.873,13.542-11.554,37.555-12.664,68.267h-0.222
			c-4.719,0-8.533,3.814-8.533,8.533v59.733c0,4.25,3.123,7.851,7.322,8.448c2.466,0.35,60.826,8.619,103.612,8.619
			c42.598,0,125.346-8.226,128.853-8.576c4.352-0.435,7.68-4.105,7.68-8.491v-59.733
			C512.001,388.096,508.579,384.572,504.261,384.162z M197.949,405.572c0.742-0.085,1.493-0.162,2.219-0.247
			c1.63-0.196,3.191-0.384,4.736-0.572c0.495-0.068,1.007-0.128,1.493-0.188c1.954-0.247,3.823-0.486,5.598-0.717l0.051-0.009
			c8.951-1.186,15.565-2.21,18.355-2.654V444.8c-17.161,2.236-60.979,7.467-93.867,7.467c-34.321,0-97.587-5.683-119.467-7.748
			v-43.401c1.613,0.179,5.367,0.58,10.726,1.135c0.162,0.017,0.307,0.026,0.469,0.043c1.476,0.154,3.055,0.316,4.736,0.478
			c0.555,0.06,1.084,0.111,1.647,0.171c1.485,0.145,3.021,0.299,4.634,0.452c0.887,0.085,1.775,0.171,2.697,0.256
			c1.527,0.154,3.081,0.299,4.702,0.444c1.075,0.102,2.167,0.205,3.285,0.307c1.536,0.145,3.081,0.282,4.676,0.427
			c1.34,0.119,2.697,0.239,4.07,0.358c1.51,0.136,3.021,0.264,4.574,0.401c1.527,0.128,3.063,0.256,4.625,0.384
			c1.485,0.119,2.961,0.247,4.48,0.367c1.63,0.128,3.277,0.256,4.924,0.384c1.527,0.12,3.046,0.239,4.591,0.35
			c1.681,0.128,3.362,0.247,5.052,0.367c1.493,0.102,2.97,0.205,4.463,0.307c1.826,0.119,3.635,0.239,5.461,0.35
			c1.374,0.085,2.748,0.171,4.113,0.256c1.843,0.111,3.661,0.205,5.487,0.299c1.331,0.068,2.679,0.145,3.994,0.213
			c1.903,0.094,3.755,0.162,5.615,0.239c1.178,0.051,2.381,0.111,3.533,0.154c2.074,0.077,4.062,0.128,6.059,0.171
			c0.879,0.026,1.809,0.06,2.679,0.077c2.825,0.06,5.564,0.094,8.175,0.094c2.577,0,5.188-0.034,7.817-0.085
			c0.896-0.026,1.801-0.06,2.697-0.085c1.732-0.051,3.465-0.094,5.197-0.171c1.067-0.043,2.125-0.094,3.183-0.145
			c1.596-0.077,3.183-0.145,4.762-0.239c1.101-0.06,2.193-0.136,3.285-0.205c1.544-0.094,3.081-0.188,4.617-0.299
			c1.092-0.077,2.176-0.162,3.26-0.247c1.51-0.111,3.004-0.23,4.48-0.35c1.092-0.094,2.167-0.188,3.243-0.282
			c1.459-0.128,2.901-0.256,4.326-0.393c1.041-0.102,2.057-0.196,3.072-0.299c1.459-0.145,2.884-0.29,4.301-0.435
			c0.93-0.102,1.86-0.196,2.773-0.299C195.047,405.905,196.507,405.743,197.949,405.572z M494.936,444.518h-0.002
			c-21.879,2.065-85.137,7.748-119.467,7.748c-32.879,0-76.706-5.231-93.867-7.467v-43.614c2.79,0.444,9.404,1.468,18.355,2.654
			l0.051,0.009c1.775,0.23,3.644,0.469,5.598,0.717c0.486,0.06,0.998,0.12,1.493,0.188c1.545,0.188,3.106,0.375,4.736,0.572
			c0.725,0.085,1.476,0.162,2.219,0.247c1.442,0.171,2.901,0.333,4.403,0.495c0.913,0.102,1.843,0.196,2.773,0.299
			c1.417,0.145,2.842,0.29,4.301,0.435c1.016,0.102,2.031,0.196,3.072,0.299c1.425,0.137,2.867,0.265,4.326,0.393
			c1.075,0.094,2.15,0.188,3.243,0.282c1.476,0.119,2.97,0.239,4.48,0.35c1.084,0.085,2.167,0.171,3.26,0.247
			c1.536,0.111,3.072,0.205,4.617,0.299c1.092,0.068,2.185,0.145,3.285,0.205c1.579,0.094,3.166,0.162,4.762,0.239
			c1.058,0.051,2.116,0.102,3.183,0.145c1.732,0.077,3.465,0.119,5.197,0.171c0.896,0.026,1.801,0.06,2.697,0.085
			c2.628,0.051,5.24,0.085,7.817,0.085c2.611,0,5.35-0.034,8.175-0.094c0.87-0.017,1.801-0.051,2.68-0.077
			c1.997-0.043,3.985-0.094,6.059-0.171c1.152-0.043,2.355-0.102,3.533-0.154c1.86-0.077,3.712-0.145,5.615-0.239
			c1.314-0.068,2.662-0.145,3.994-0.213c1.826-0.094,3.644-0.188,5.487-0.299c1.365-0.085,2.739-0.171,4.113-0.256
			c1.826-0.111,3.635-0.23,5.461-0.35c1.493-0.102,2.97-0.205,4.463-0.307c1.69-0.119,3.371-0.239,5.052-0.367
			c1.544-0.111,3.063-0.23,4.591-0.35c1.647-0.128,3.294-0.256,4.924-0.384c1.519-0.12,2.995-0.247,4.48-0.367
			c1.562-0.128,3.098-0.256,4.625-0.384c1.553-0.137,3.063-0.265,4.574-0.401c1.374-0.12,2.731-0.239,4.07-0.358
			c1.596-0.145,3.14-0.282,4.676-0.427c1.118-0.102,2.21-0.205,3.285-0.307c1.621-0.145,3.174-0.29,4.702-0.444
			c0.922-0.085,1.809-0.171,2.697-0.256c1.613-0.154,3.149-0.307,4.634-0.452c0.563-0.06,1.092-0.111,1.647-0.171
			c1.681-0.162,3.26-0.324,4.736-0.478c0.162-0.017,0.307-0.026,0.469-0.043c5.359-0.555,9.114-0.956,10.726-1.135V444.518z"/>
	</g>
</g>
</svg>