<?xml version="1.0" encoding="utf-8"?>
<!-- Uploaded to: SVG Repo, www.svgrepo.com, Generator: SVG Repo Mixer Tools -->
<svg width="800px" height="800px" viewBox="0 -2.36 48.106 48.106" xmlns="http://www.w3.org/2000/svg">
  <g id="Snapback" transform="translate(-444.107 -701.135)">
    <g id="Group_254" data-name="Group 254">
      <path id="Path_172" data-name="Path 172" d="M489.416,730.72a1,1,0,0,1-1-1v-9.487c0-9.563-3.329-15.491-19.9-15.491-16.425,0-20.923,4.056-20.923,18.867v6.111a1,1,0,0,1-2,0v-6.111c0-15.991,5.356-20.867,22.923-20.867,15.554,0,21.9,5.068,21.9,17.491v9.487A1,1,0,0,1,489.416,730.72Z" fill="#231f20"/>
    </g>
    <g id="Group_255" data-name="Group 255">
      <path id="Path_173" data-name="Path 173" d="M468.932,733.7c-8.3,0-16.692-1.413-22.182-4.209a.5.5,0,0,1,.454-.89c10.431,5.313,31.585,5.528,41.917.426a.5.5,0,0,1,.442.9C484.448,732.451,476.735,733.7,468.932,733.7Z" fill="#231f20"/>
    </g>
    <g id="Group_256" data-name="Group 256">
      <path id="Path_174" data-name="Path 174" d="M468.98,744.529c-8.216,0-16.531-1.364-21.826-4.062a1,1,0,1,1,.908-1.781c9.657,4.92,30.788,5.127,40.372.394a1,1,0,0,1,.886,1.793C484.368,743.318,476.718,744.529,468.98,744.529Z" fill="#231f20"/>
    </g>
    <g id="Group_257" data-name="Group 257">
      <path id="Path_175" data-name="Path 175" d="M447.608,740.576a.985.985,0,0,1-.335-.058,5.137,5.137,0,0,1-2.921-2.848,5.642,5.642,0,0,1,.874-4.886l2.02-3.018a1,1,0,1,1,1.662,1.113l-2,2.981a3.765,3.765,0,0,0-.675,3.139,3.117,3.117,0,0,0,1.706,1.635,1,1,0,0,1-.334,1.942Z" fill="#231f20"/>
    </g>
    <g id="Group_258" data-name="Group 258">
      <path id="Path_176" data-name="Path 176" d="M488.712,740.98a1,1,0,0,1-.334-1.942,3.129,3.129,0,0,0,1.71-1.648,3.814,3.814,0,0,0-.7-3.162l-1.974-2.945a1,1,0,1,1,1.662-1.113l2,2.981c1.117,1.835,1.411,3.479.9,4.923a5.137,5.137,0,0,1-2.921,2.849A1.008,1.008,0,0,1,488.712,740.98Z" fill="#231f20"/>
    </g>
    <g id="Group_259" data-name="Group 259">
      <path id="Path_177" data-name="Path 177" d="M470.852,703.189a.5.5,0,0,1-.5-.5.554.554,0,0,0-.553-.554h-2.5a.555.555,0,0,0-.554.554.5.5,0,0,1-1,0,1.556,1.556,0,0,1,1.554-1.554h2.5a1.555,1.555,0,0,1,1.553,1.554A.5.5,0,0,1,470.852,703.189Z" fill="#231f20"/>
    </g>
    <g id="Group_260" data-name="Group 260">
      <path id="Path_178" data-name="Path 178" d="M474.578,725.477a.531.531,0,0,1-.469-.295c-.152-.324.023-.534.372-.955.436-.525,1.454-1.753,1.265-2.465-.022-.085-.09-.342-.635-.552.014.008-.053,0-.149,0a4.2,4.2,0,0,0-2.772,1.361.5.5,0,0,1-.8-.162c-.088-.194-.358-.6-.626-.6-.252,0-.616.341-.974.912l-1.428,2.5a.471.471,0,0,1-.46.251.5.5,0,0,1-.432-.3c-.681-1.555-1.8-3.313-2.418-3.442a1.485,1.485,0,0,0-.478.651.5.5,0,0,1-.351.29.506.506,0,0,1-.442-.115c-.607-.543-2.841-2.158-3.463-1.066-.5.864.723,2.407,1.278,2.979a.5.5,0,0,1,.239.426.54.54,0,0,1-.508.5.585.585,0,0,1-.142-.017c-.267-.072-6.537-1.819-6.724-6.212-.011-.15-.215-4.063,8.32-6.42a.561.561,0,0,1,.82.352.47.47,0,0,1-.291.54c-.435.537-1.2,1.7-.706,2.143.9.815,1.879,1.014,2.6.481.522-.386.747-1.953.739-2.941l.081-.793a.5.5,0,0,1,.38-.434.506.506,0,0,1,.536.213,8.046,8.046,0,0,1,.479.823,4.635,4.635,0,0,1,1,.016,4.172,4.172,0,0,1,.528-.842.513.513,0,0,1,.352-.143c.179,0,.726,0,.726,2.124,0,.27.278,2.268,1.318,2.268,1.546-.125,1.792-.588,1.972-.925.161-.3.4-1.109-.837-2.025a.545.545,0,0,1-.195-.582.563.563,0,0,1,.516-.353c.833,0,8.054,2.105,8.569,6.066a4.438,4.438,0,0,1-1.225,3.562,10.792,10.792,0,0,1-5.555,3.176Zm.384-5.266a2.069,2.069,0,0,1,.418.036,1.9,1.9,0,0,1,1.333,1.26,3.258,3.258,0,0,1-.812,2.53,9.993,9.993,0,0,0,3.529-2.446,3.456,3.456,0,0,0,.942-2.723c-.307-2.354-4.058-4.092-6.193-4.819a2.183,2.183,0,0,1,.013,2.053c-.354.666-.924,1.3-2.689,1.449-.056.005-.111.007-.165.007A2.087,2.087,0,0,1,469.4,716a5.335,5.335,0,0,1-.381-1.713c0-.052,0-.126-.011-.213a.5.5,0,0,1-.443.117,3.73,3.73,0,0,0-.613-.084c-.371,0-.809.054-.809.054a.486.486,0,0,1-.236-.028c-.075.906-.322,2.351-1.11,2.934-1.1.819-2.587.609-3.863-.54a1.93,1.93,0,0,1-.121-2.444c-6.4,2.1-6.355,5-6.354,5.032.1,2.41,2.623,3.933,4.361,4.7a2.79,2.79,0,0,1-.37-2.819,1.7,1.7,0,0,1,1.548-.9,5.655,5.655,0,0,1,2.975,1.325,1.411,1.411,0,0,1,1.086-.689,1.858,1.858,0,0,1,.2.021c1.067.222,2.127,1.991,2.713,3.141l.963-1.689c.592-.946,1.189-1.4,1.832-1.4a1.56,1.56,0,0,1,1.193.637A4.829,4.829,0,0,1,474.962,720.211Z" fill="#231f20"/>
    </g>
  </g>
</svg>