<?xml version="1.0" encoding="iso-8859-1"?>
<!-- Uploaded to: SVG Repo, www.svgrepo.com, Generator: SVG Repo Mixer Tools -->
<svg height="800px" width="800px" version="1.1" id="Layer_1" xmlns="http://www.w3.org/2000/svg" xmlns:xlink="http://www.w3.org/1999/xlink" 
	 viewBox="0 0 512 512" xml:space="preserve">
<g>
	<path style="fill:#FAC176;" d="M121.645,0h176.552c0,0,80.181,123.215,88.276,141.241c7.203,16.049,3.972,36.811-6.312,50.732
		c-5.438,7.371-12.367,13.497-19.182,19.624c-21.769,19.597-42.293,40.527-62.844,61.387c-17.09,17.355-34.701,34.225-51.023,52.312
		c-17.073,18.918-32.786,39.759-45.745,61.952c-13.365,22.872-25.626,47.916-29.414,74.399c-1.977,13.859-1.386,28.072,2.657,41.525
		c0,0,2.481,8.828-17.655,8.828s-29.519-46.071-26.483-61.793c3.037-15.722,6.065-42.761,0-61.793
		c-6.073-19.032-10.205-31.17,17.655-35.31c27.86-4.14,59.86-47.175,79.448-97.103s26.483-71.998,61.793-88.276
		c23.623-10.893-7.548-37.517-17.805-45.806c-10.505-8.492-22.281-15.616-32.971-23.949
		c-35.434-27.604-64.742-63.364-103.512-86.607C133.58,10.452,121.645,0,121.645,0"/>
	<path style="fill:#35495E;" d="M328.621,242.299c-16.905-16.322-41.181-38.524-65.562-56.638
		c-14.636,15.139-22.104,36.228-35.487,70.338c-19.58,49.929-51.58,92.963-79.448,97.103c-27.86,4.14-23.72,16.278-17.655,35.31
		c6.073,19.032,3.037,46.071,0,61.793c-3.028,15.722,6.347,61.793,26.483,61.793c20.145,0,17.655-8.828,17.655-8.828
		c-4.043-13.453-4.634-27.666-2.648-41.525c3.778-26.483,16.04-51.527,29.405-74.399c12.968-22.193,28.681-43.026,45.745-61.943
		c16.331-18.097,33.933-34.966,51.032-52.321C308.256,262.717,318.364,252.433,328.621,242.299"/>
</g>
</svg>