<?xml version="1.0" encoding="utf-8"?>
<!-- Uploaded to: SVG Repo, www.svgrepo.com, Generator: SVG Repo Mixer Tools -->
<svg width="800px" height="800px" viewBox="-8.5 0 53.35 53.35" xmlns="http://www.w3.org/2000/svg">
  <g id="Tanktop" transform="translate(-234.588 -587.7)">
    <g id="Group_104" data-name="Group 104">
      <path id="Path_78" data-name="Path 78" d="M251.8,641.05H237.159c-2.358,0-2.358-2.268-2.358-3.358l-.213-29.862a1,1,0,0,1,.541-.894c.281-.152,7.01-3.931,4.809-18.082a1,1,0,0,1,.988-1.154h4.649a1,1,0,0,1,1,1c0,.077.02,7.806,3.178,10.971a4.07,4.07,0,0,0,3.007,1.268v2a6.059,6.059,0,0,1-4.426-1.858c-3.019-3.029-3.614-9-3.731-11.384h-2.525c1.611,12.611-3.711,17.437-5.486,18.672l.209,29.314a3.855,3.855,0,0,0,.142,1.342h0a.9.9,0,0,0,.216.022H251.8Z" fill="#231f20"/>
    </g>
    <g id="Group_105" data-name="Group 105">
      <path id="Path_79" data-name="Path 79" d="M245.534,588.7" fill="none" stroke="#231f20" stroke-linejoin="round" stroke-width="2"/>
    </g>
    <g id="Group_106" data-name="Group 106">
      <path id="Path_80" data-name="Path 80" d="M268.36,641.05H251.8v-2H268.36a.587.587,0,0,0,.227-.031,4.084,4.084,0,0,0,.13-1.327l.211-29.32c-1.774-1.235-7.1-6.061-5.487-18.672h-2.525c-.117,2.381-.712,8.356-3.731,11.384a6.057,6.057,0,0,1-4.425,1.858v-2a4.07,4.07,0,0,0,3.006-1.268c3.158-3.164,3.178-10.894,3.178-10.971a1,1,0,0,1,1-1h4.648a1,1,0,0,1,.989,1.154c-2.2,14.151,4.529,17.93,4.817,18.084a1.011,1.011,0,0,1,.534.892l-.215,29.869C270.717,638.782,270.717,641.05,268.36,641.05Z" fill="#231f20"/>
    </g>
    <g id="Group_107" data-name="Group 107">
      <path id="Path_81" data-name="Path 81" d="M259.985,588.7" fill="none" stroke="#231f20" stroke-linejoin="round" stroke-width="2"/>
    </g>
    <g id="Group_108" data-name="Group 108">
      <rect id="Rectangle_16" data-name="Rectangle 16" width="33.91" height="1" transform="translate(235.801 637.192)" fill="#231f20"/>
    </g>
    <g id="Group_110" data-name="Group 110">
      <g id="Group_109" data-name="Group 109">
        <path id="Path_82" data-name="Path 82" d="M248.467,613.16a7.026,7.026,0,0,1,8.064,0,3.923,3.923,0,0,1,1.608,3.2,4.362,4.362,0,0,1-1.8,3.42,4.844,4.844,0,0,1,2.424,4.32,4.566,4.566,0,0,1-1.728,3.624,7.759,7.759,0,0,1-9.072,0,4.566,4.566,0,0,1-1.728-3.624,4.844,4.844,0,0,1,2.424-4.32,4.362,4.362,0,0,1-1.8-3.42A3.923,3.923,0,0,1,248.467,613.16Zm1.68,12.876a4.261,4.261,0,0,0,4.7,0,2.27,2.27,0,0,0,1.1-2.028,2.325,2.325,0,0,0-1.056-2.04,4.36,4.36,0,0,0-4.8,0,2.325,2.325,0,0,0-1.056,2.04A2.27,2.27,0,0,0,250.147,626.036Zm.228-7.632a3.448,3.448,0,0,0,4.248,0,2.238,2.238,0,0,0,.9-1.8,2.207,2.207,0,0,0-.9-1.788,3.493,3.493,0,0,0-4.248,0,2.207,2.207,0,0,0-.9,1.788A2.238,2.238,0,0,0,250.375,618.4Z"/>
      </g>
    </g>
  </g>
</svg>